trial_5_IK.mot
nRows=13
nColumns=42

name trial_5_IK.mot
datacolumns 42
datarows 13
range 7.5100000000 7.6300000000
endheader
time	pelvis_tilt	pelvis_list	pelvis_rotation	pelvis_tx	pelvis_ty	pelvis_tz	hip_flexion_r	hip_adduction_r	hip_rotation_r	knee_angle_r	knee_vv_r	knee_rot_r	ankle_angle_r	subtalar_angle_r	mtp_angle_r	hip_flexion_l	hip_adduction_l	hip_rotation_l	knee_angle_l	knee_vv_l	knee_rot_l	ankle_angle_l	subtalar_angle_l	mtp_angle_l	lumbar_extension	lumbar_bending	lumbar_rotation	arm_flex_r	arm_add_r	arm_rot_r	elbow_flex_r	pro_sup_r	wrist_flex_r	wrist_dev_r	arm_flex_l	arm_add_l	arm_rot_l	elbow_flex_l	pro_sup_l	wrist_flex_l	wrist_dev_l
        7.5100000000	        9.1173507700	        5.3688776300	       -0.2077834400	        0.0618952600	        0.9146513400	       -0.0593814700	        9.2624191400	       -7.3621215400	        1.5673844900	      -62.0852116500	        0.0000000000	        0.0000000000	       -0.1304398200	        0.0000000000	        0.0000000000	       -2.2053789300	        9.6553201800	       -2.9522764400	       -9.4321041900	        0.0000000000	        0.0000000000	        1.2474055400	        0.0000000000	        0.0000000000	      -24.7036786400	       -5.2975472900	       -1.6024708000	        1.3573183600	      -10.2816127600	       34.6240687900	        4.5402440800	       86.5166270600	        0.0000000000	        0.0000000000	       23.2061202700	      -19.5450790800	       30.1241670300	       23.2685004400	       85.9436692700	        0.0000000000	        0.0000000000	
        7.5200000000	        8.9230909300	        5.1882424900	       -0.0902452900	        0.0610421700	        0.9151322100	       -0.0603352200	       10.5897810400	       -7.3370937100	        1.1773754300	      -61.6015505600	        0.0000000000	        0.0000000000	        1.2186124000	        0.0000000000	        0.0000000000	       -2.7501217400	        9.5301102600	       -2.7735232800	       -9.0332444100	        0.0000000000	        0.0000000000	        1.4902631100	        0.0000000000	        0.0000000000	      -24.4894817100	       -4.9465059500	       -1.8706981900	        0.5827820700	      -10.2884175300	       34.5393567100	        4.5456901500	       86.5166270600	        0.0000000000	        0.0000000000	       23.7651294000	      -19.9008065600	       29.3988412700	       24.3455166900	       85.9436692700	        0.0000000000	        0.0000000000	
        7.5300000000	        8.7213619900	        4.9905137000	        0.0050239500	        0.0602097200	        0.9155267500	       -0.0612045600	       11.8395093600	       -7.3043731200	        0.7582028600	      -60.8246509300	        0.0000000000	        0.0000000000	        2.4100503000	        0.0000000000	        0.0000000000	       -3.2911834800	        9.3801790800	       -2.6495772100	       -8.6232127400	        0.0000000000	        0.0000000000	        1.7374832000	        0.0000000000	        0.0000000000	      -24.2497388800	       -4.5880150200	       -2.0971895900	       -0.1724636200	      -10.3194190200	       34.4139017400	        4.5548867200	       86.5166270600	        0.0000000000	        0.0000000000	       24.2584049800	      -20.2232885600	       28.5991125700	       25.4144562000	       85.9436692700	        0.0000000000	        0.0000000000	
        7.5400000000	        8.5304855400	        4.7779902600	        0.0784705700	        0.0594173300	        0.9158595900	       -0.0619920800	       12.9779000700	       -7.2616956700	        0.3021718000	      -59.7488630800	        0.0000000000	        0.0000000000	        3.4477370900	        0.0000000000	        0.0000000000	       -3.8507515800	        9.2084018100	       -2.5805726200	       -8.1985842600	        0.0000000000	        0.0000000000	        1.9903310700	        0.0000000000	        0.0000000000	      -24.0140059400	       -4.2248384000	       -2.2961838500	       -0.8948801100	      -10.3693564700	       34.2486368800	        4.5629380600	       86.5166270600	        0.0000000000	        0.0000000000	       24.6854570900	      -20.5166785600	       27.7251769000	       26.4821184200	       85.9436692700	        0.0000000000	        0.0000000000	
        7.5500000000	        8.3667332900	        4.5566575700	        0.1349950000	        0.0586755400	        0.9161395300	       -0.0627056000	       13.9745567200	       -7.2115170400	       -0.2025164900	      -58.3693693100	        0.0000000000	        0.0000000000	        4.3327826600	        0.0000000000	        0.0000000000	       -4.4480372000	        9.0214934600	       -2.5582849700	       -7.7578934900	        0.0000000000	        0.0000000000	        2.2502035000	        0.0000000000	        0.0000000000	      -23.8073082000	       -3.8624935000	       -2.4836057300	       -1.5746383700	      -10.4330424600	       34.0425754300	        4.5679149700	       86.5166270600	        0.0000000000	        0.0000000000	       25.0479279100	      -20.7853670800	       26.7900224500	       27.5486334800	       85.9436692700	        0.0000000000	        0.0000000000	
        7.5600000000	        8.2433097600	        4.3354171500	        0.1832479700	        0.0579969200	        0.9163755800	       -0.0633578200	       14.8071940300	       -7.1605040300	       -0.7670601900	      -56.6857658900	        0.0000000000	        0.0000000000	        5.0639384200	        0.0000000000	        0.0000000000	       -5.0957014800	        8.8282660800	       -2.5672796300	       -7.3024358300	        0.0000000000	        0.0000000000	        2.5193103000	        0.0000000000	        0.0000000000	      -23.6456918300	       -3.5083126700	       -2.6737867000	       -2.2063149100	      -10.5052854100	       33.7933337500	        4.5702656100	       86.5166270600	        0.0000000000	        0.0000000000	       25.3501782900	      -21.0346590400	       25.8177295300	       28.6072030600	       85.9436692700	        0.0000000000	        0.0000000000	
        7.5700000000	        8.1673561900	        4.1236645600	        0.2335821500	        0.0573889000	        0.9165800100	       -0.0639575400	       15.4656310800	       -7.1171359900	       -1.3975912100	      -54.7058500900	        0.0000000000	        0.0000000000	        5.6380292100	        0.0000000000	        0.0000000000	       -5.7986642800	        8.6375702800	       -2.5867018900	       -6.8372417200	        0.0000000000	        0.0000000000	        2.8007558400	        0.0000000000	        0.0000000000	      -23.5348367500	       -3.1697664100	       -2.8775662000	       -2.7885363200	      -10.5808461800	       33.4979309900	        4.5721617400	       86.5166270600	        0.0000000000	        0.0000000000	       25.5995628800	      -21.2700939200	       24.8400716100	       29.6454210400	       85.9436692700	        0.0000000000	        0.0000000000	
        7.5800000000	        8.1376341500	        3.9284727500	        0.2955736800	        0.0568527600	        0.9167411100	       -0.0644994600	       15.9535824000	       -7.0876801200	       -2.0916204700	      -52.4477230400	        0.0000000000	        0.0000000000	        6.0503274200	        0.0000000000	        0.0000000000	       -6.5537660900	        8.4562803500	       -2.5933147900	       -6.3716450400	        0.0000000000	        0.0000000000	        3.0981271400	        0.0000000000	        0.0000000000	      -23.4712501300	       -2.8530334900	       -3.1014506900	       -3.3230932300	      -10.6546044800	       33.1538338800	        4.5766112200	       86.5166270600	        0.0000000000	        0.0000000000	       25.8059088600	      -21.4957452100	       23.8923128600	       30.6476789100	       85.9436692700	        0.0000000000	        0.0000000000	
        7.5900000000	        8.1449569200	        3.7531784900	        0.3757039300	        0.0564022400	        0.9168226300	       -0.0649780300	       16.2867305800	       -7.0718790400	       -2.8357878800	      -49.9390516800	        0.0000000000	        0.0000000000	        6.2959397900	        0.0000000000	        0.0000000000	       -7.3489814900	        8.2878255300	       -2.5655225600	       -5.9186579400	        0.0000000000	        0.0000000000	        3.4148748100	        0.0000000000	        0.0000000000	      -23.4446988300	       -2.5621476600	       -3.3468769300	       -3.8137901100	      -10.7219466000	       32.7601412000	        4.5864450200	       86.5166270600	        0.0000000000	        0.0000000000	       25.9803882800	      -21.7132682200	       23.0089416100	       31.5977754400	       85.9436692700	        0.0000000000	        0.0000000000	
        7.6000000000	        8.1745767700	        3.5973759300	        0.4761914000	        0.0560504200	        0.9167953400	       -0.0653910200	       16.4877803800	       -7.0607120300	       -3.6046708200	      -47.2131596700	        0.0000000000	        0.0000000000	        6.3730608500	        0.0000000000	        0.0000000000	       -8.1640019800	        8.1316279300	       -2.4874020400	       -5.4930251700	        0.0000000000	        0.0000000000	        3.7537561900	        0.0000000000	        0.0000000000	      -23.4410425300	       -2.2987698800	       -3.6093252600	       -4.2652126600	      -10.7790640400	       32.3187575700	        4.6034832000	       86.5166270600	        0.0000000000	        0.0000000000	       26.1338858400	      -21.9224854800	       22.2199161300	       32.4809057100	       85.9436692700	        0.0000000000	        0.0000000000	
        7.6100000000	        8.2102112300	        3.4580108200	        0.5953949000	        0.0557864000	        0.9166452400	       -0.0657228800	       16.5813609200	       -7.0372871800	       -4.3604721100	      -44.3027034000	        0.0000000000	        0.0000000000	        6.2875600200	        0.0000000000	        0.0000000000	       -8.9737830200	        7.9832963900	       -2.3515125800	       -5.1083063100	        0.0000000000	        0.0000000000	        4.1164190000	        0.0000000000	        0.0000000000	      -23.4451571600	       -2.0628469300	       -3.8784336100	       -4.6814348100	      -10.8231588400	       31.8353501900	        4.6280008900	       86.5166270600	        0.0000000000	        0.0000000000	       26.2754262100	      -22.1227754400	       21.5479259000	       33.2848781300	       85.9436692700	        0.0000000000	        0.0000000000	
        7.6200000000	        8.2379221000	        3.3312219800	        0.7287896300	        0.0555868900	        0.9163583400	       -0.0659488600	       16.5897823000	       -6.9800290600	       -5.0539181500	      -41.2339437400	        0.0000000000	        0.0000000000	        6.0570661300	        0.0000000000	        0.0000000000	       -9.7546835400	        7.8361437700	       -2.1596280400	       -4.7742223400	        0.0000000000	        0.0000000000	        4.5031071600	        0.0000000000	        0.0000000000	      -23.4436778700	       -1.8538558800	       -4.1405780400	       -5.0645680500	      -10.8527521500	       31.3199049800	        4.6585042200	       86.5166270600	        0.0000000000	        0.0000000000	       26.4117957600	      -22.3138777800	       21.0069723300	       34.0008751200	       85.9436692700	        0.0000000000	        0.0000000000	
        7.6300000000	        8.2481847600	        3.2137241000	        0.8699727900	        0.0554333700	        0.9159176300	       -0.0660524300	       16.5292115800	       -6.8678110700	       -5.6268715000	      -38.0248089900	        0.0000000000	        0.0000000000	        5.7123974100	        0.0000000000	        0.0000000000	      -10.4908254600	        7.6842048400	       -1.9212850800	       -4.4954262100	        0.0000000000	        0.0000000000	        4.9125651600	        0.0000000000	        0.0000000000	      -23.4274108400	       -1.6715105000	       -4.3833841300	       -5.4136845200	      -10.8677211800	       30.7868309400	        4.6918747200	       86.5166270600	        0.0000000000	        0.0000000000	       26.5481995100	      -22.4953480500	       20.6023270200	       34.6238530900	       85.9436692700	        0.0000000000	        0.0000000000	
